<svg width="111" height="54" viewBox="0 0 111 54" fill="none" xmlns="http://www.w3.org/2000/svg">
<path d="M2.76599 53.744C2.02199 53.744 1.44332 53.2893 1.02999 52.38C0.657985 51.4707 0.471985 50.458 0.471985 49.342C0.471985 47.73 0.657985 45.1053 1.02999 41.468L4.25399 9.91H9.21399C10.5367 9.91 11.26 10.4473 11.384 11.522C11.508 12.5553 11.4253 14.3327 11.136 16.854L8.28399 43.142C8.20132 44.01 8.15999 44.878 8.15999 45.746C8.15999 46.614 8.22199 47.482 8.34599 48.35L21.676 45.25C22.1307 45.1673 22.482 45.1053 22.73 45.064C22.978 44.9813 23.164 44.94 23.288 44.94C23.784 44.94 24.032 45.2293 24.032 45.808C24.032 46.8413 23.846 47.916 23.474 49.032C23.1433 50.148 22.668 51.0987 22.048 51.884C21.428 52.628 20.6633 53 19.754 53H17.894C14.794 53 12.252 53.062 10.268 53.186C8.32532 53.31 6.77532 53.434 5.61799 53.558C4.46065 53.682 3.50999 53.744 2.76599 53.744Z" fill="#252428"/>
<path d="M29.1281 53.992C28.4254 53.992 27.9708 53.5993 27.7641 52.814C27.5574 51.9873 27.4541 51.14 27.4541 50.272C27.4541 48.784 27.5161 47.4613 27.6401 46.304C27.8054 45.1467 27.9708 43.8653 28.1361 42.46L30.3681 22.558H34.7081C35.5348 22.558 36.0721 23.0127 36.3201 23.922C36.5681 24.8313 36.6921 25.8647 36.6921 27.022C36.6921 27.6007 36.6508 28.2207 36.5681 28.882C36.4854 29.502 36.3614 30.4733 36.1961 31.796L35.0181 41.902C34.7701 44.0513 34.5428 45.8493 34.3361 47.296C34.1294 48.7427 33.9641 49.9827 33.8401 51.016C33.7161 52.0493 33.5921 53.0413 33.4681 53.992H29.1281Z" fill="#252428"/>
<path d="M49.6143 53.992C46.4729 53.992 43.9929 53.5167 42.1743 52.566C40.3969 51.574 39.5083 50.2513 39.5083 48.598C39.5083 47.854 39.6116 47.172 39.8182 46.552C40.0662 45.8907 40.4176 45.56 40.8722 45.56C41.0376 45.56 41.2236 45.6013 41.4303 45.684C41.6369 45.7667 42.0296 45.994 42.6082 46.366C43.4349 46.9033 44.3443 47.3993 45.3363 47.854C46.3696 48.3087 47.4029 48.6807 48.4362 48.97C49.5109 49.218 50.5029 49.342 51.4123 49.342C52.7349 49.342 53.6856 49.032 54.2643 48.412C54.8843 47.7507 55.1943 46.8827 55.1943 45.808C55.1943 45.0227 54.9463 44.382 54.4503 43.886C53.9956 43.3487 53.2516 42.7493 52.2183 42.088L48.3743 39.608C46.7623 38.5747 45.3982 37.4793 44.2822 36.322C43.2076 35.1233 42.6702 33.5733 42.6702 31.672C42.6702 28.9853 43.7036 26.8153 45.7703 25.162C47.8369 23.4673 50.7509 22.62 54.5122 22.62C57.1576 22.62 59.1003 22.8887 60.3403 23.426C61.5803 23.9633 62.2003 24.8933 62.2003 26.216C62.2003 27.2493 62.0349 28.1173 61.7043 28.82C61.4149 29.5227 61.0016 29.874 60.4643 29.874C60.2989 29.874 60.0716 29.8327 59.7822 29.75C59.5342 29.6673 59.3069 29.564 59.1003 29.44C58.7696 29.2333 58.2529 28.944 57.5503 28.572C56.8476 28.2 56.0623 27.8693 55.1943 27.58C54.3263 27.2493 53.4169 27.084 52.4663 27.084C51.5156 27.084 50.7303 27.3733 50.1103 27.952C49.5316 28.4893 49.2423 29.2333 49.2423 30.184C49.2423 30.9693 49.4903 31.6307 49.9863 32.168C50.4823 32.7053 51.3089 33.2633 52.4663 33.842L56.4963 35.702C58.1909 36.4873 59.5549 37.4173 60.5883 38.492C61.6629 39.5253 62.2003 41.0753 62.2003 43.142C62.2003 45.5807 61.6009 47.606 60.4023 49.218C59.2449 50.83 57.6949 52.0287 55.7523 52.814C53.8509 53.5993 51.8049 53.992 49.6143 53.992Z" fill="#252428"/>
<path d="M72.5121 53.992C70.5281 53.992 69.1228 53.4133 68.2961 52.256C67.5108 51.0987 67.2628 49.28 67.5521 46.8L69.9701 27.89H67.9861C67.3661 27.89 67.0561 27.5593 67.0561 26.898C67.0561 26.4847 67.3248 25.8853 67.8621 25.1C68.4408 24.3147 69.1641 23.4467 70.0321 22.496C70.9001 21.5453 71.7888 20.636 72.6981 19.768C73.6488 18.9 74.5168 18.1973 75.3021 17.66C76.0874 17.0813 76.6868 16.792 77.1001 16.792C77.5548 16.792 77.8648 16.978 78.0301 17.35C78.1954 17.6807 78.2368 18.1147 78.1541 18.652L77.5961 23.55H84.5401C85.1601 23.55 85.5114 23.6533 85.5941 23.86C85.7181 24.0667 85.6974 24.3973 85.5321 24.852C85.0361 26.2573 84.5608 27.1253 84.1061 27.456C83.6928 27.7453 82.9074 27.89 81.7501 27.89H76.7901L75.2401 41.158C75.1574 41.9433 75.0748 42.6873 74.9921 43.39C74.9508 44.0927 74.9301 44.7333 74.9301 45.312C74.9301 46.2627 75.1574 46.9447 75.6121 47.358C76.0668 47.73 76.8108 47.916 77.8441 47.916C78.8361 47.916 79.6834 47.7093 80.3861 47.296C81.1301 46.8827 81.6468 46.676 81.9361 46.676C82.2668 46.676 82.4321 46.8827 82.4321 47.296C82.4321 47.7093 82.2048 48.288 81.7501 49.032C81.3368 49.776 80.6961 50.5407 79.8281 51.326C79.0014 52.07 77.9681 52.69 76.7281 53.186C75.4881 53.7233 74.0828 53.992 72.5121 53.992Z" fill="#252428"/>
<path d="M94.2702 51.512L92.7822 42.15C94.3116 38.182 95.8616 34.7513 97.4322 31.858C99.0442 28.9233 100.677 26.65 102.33 25.038C103.984 23.426 105.658 22.62 107.352 22.62C108.303 22.62 108.985 22.93 109.398 23.55C109.812 24.1287 110.018 24.8727 110.018 25.782C110.018 26.6087 109.915 27.4147 109.708 28.2C109.543 28.944 109.274 29.564 108.902 30.06C108.572 30.556 108.158 30.804 107.662 30.804C107.208 30.804 106.691 30.6593 106.112 30.37C105.575 30.0807 104.831 29.936 103.88 29.936C103.26 29.936 102.475 30.5767 101.524 31.858C100.574 33.1393 99.5816 34.8547 98.5482 37.004C97.5562 39.112 96.6676 41.4473 95.8822 44.01C95.0969 46.5313 94.5596 49.032 94.2702 51.512ZM89.0622 53.868C88.5249 53.868 88.1116 53.7647 87.8222 53.558C87.5742 53.3927 87.4296 52.9173 87.3882 52.132C87.3882 51.3467 87.4916 50.086 87.6982 48.35L90.6122 22.558H94.9522C95.5722 22.558 96.1302 23.0127 96.6262 23.922C97.1222 24.8313 97.3702 25.8647 97.3702 27.022C97.3702 27.5593 97.2049 28.4067 96.8742 29.564C96.5849 30.68 96.2336 31.8787 95.8202 33.16C95.4069 34.4 95.0349 35.4953 94.7042 36.446L93.0922 41.53L95.3862 41.158L94.2702 51.512C94.2289 51.9253 93.9809 52.2973 93.5262 52.628C93.0716 52.9173 92.5342 53.1447 91.9142 53.31C91.3356 53.5167 90.7776 53.6613 90.2402 53.744C89.7029 53.8267 89.3102 53.868 89.0622 53.868Z" fill="#252428"/>
<path fill-rule="evenodd" clip-rule="evenodd" d="M35.304 14.806C35.3907 14.806 35.434 14.9187 35.434 15.144L35.668 14.884L35.876 14.754L36.11 14.884C36.422 14.6413 36.708 14.364 36.968 14.052C37.0893 13.9133 37.2627 13.662 37.488 13.298C37.7133 12.9167 37.9993 12.4313 38.346 11.842L39.958 9.11199C40.1313 8.81733 40.426 8.37533 40.842 7.78599C41.258 7.17933 41.7347 6.50333 42.272 5.75799C42.7711 5.06571 43.2702 4.3809 43.7693 3.70356C45.1642 5.42262 46 7.6137 46 10C46 15.5228 41.5228 20 36 20C30.4772 20 26 15.5228 26 10C26 4.47715 30.4772 0 36 0C38.0439 0 39.9446 0.613184 41.5281 1.66563C41.3473 1.90583 41.1706 2.14329 40.998 2.37799C40.582 2.96733 40.2353 3.49599 39.958 3.96399C39.4727 4.72666 39.1173 5.32466 38.892 5.75799C38.684 6.19133 38.5367 6.40799 38.45 6.40799C38.4153 6.40799 38.3807 6.30399 38.346 6.09599C38.1207 6.63333 37.8953 7.11866 37.67 7.55199C37.462 7.98533 37.254 8.36666 37.046 8.69599C36.63 9.35466 36.266 9.68399 35.954 9.68399C35.642 9.68399 35.33 9.02533 35.018 7.70799C34.8967 7.15333 34.6193 6.77199 34.186 6.56399L34.108 6.53799C34.0387 6.53799 33.9347 6.58133 33.796 6.66799C33.7267 6.70266 33.6747 6.73733 33.64 6.77199C33.6053 6.80666 33.5707 6.82399 33.536 6.82399H33.51L33.042 6.66799L32.626 7.29199C32.574 7.36133 32.496 7.39599 32.392 7.39599C32.2533 7.39599 32.158 7.36133 32.106 7.29199C32.002 7.65599 31.8893 7.83799 31.768 7.83799C31.664 7.83799 31.5167 7.77733 31.326 7.65599C31.4127 8.34933 31.4993 8.92133 31.586 9.37199C31.6727 9.82266 31.7507 10.1607 31.82 10.386C31.924 10.6633 32.0627 11.0447 32.236 11.53C32.4267 12.0153 32.626 12.5267 32.834 13.064C33.0593 13.584 33.2847 14.0607 33.51 14.494C33.5447 14.5633 33.588 14.6413 33.64 14.728C33.692 14.8147 33.7353 14.9013 33.77 14.988C33.978 14.8667 34.1513 14.806 34.29 14.806L34.498 14.832C34.6367 14.884 34.706 14.9707 34.706 15.092L35.304 14.806Z" fill="#6154C4"/>
</svg>
